<svg width="65" height="65" viewBox="0 0 90 90" fill="none" xmlns="http://www.w3.org/2000/svg">
<g id="2 No Icon" clip-path="url(#clip0_11_48)">
<path id="Vector" d="M90 45C90 20.1472 69.8528 0 45 0C20.1472 0 0 20.1472 0 45C0 69.8528 20.1472 90 45 90C69.8528 90 90 69.8528 90 45Z" fill="url(#paint0_linear_11_48)"/>
<path id="Vector_2" fill-rule="evenodd" clip-rule="evenodd" d="M29.9709 55.3062L30.6515 54.7657C31.2529 54.2882 31.6865 53.9421 31.9551 53.7254C32.0925 53.6147 32.1761 53.5463 32.2161 53.5127C32.2195 53.5099 32.2223 53.5075 32.2246 53.5056C32.2109 53.5176 32.1836 53.5424 32.1533 53.5725C32.1402 53.5857 32.1155 53.6107 32.086 53.6438C32.0667 53.6653 31.996 53.7446 31.9219 53.8582C31.8882 53.9099 31.806 54.0401 31.739 54.2237C31.6987 54.334 31.5 54.8814 31.7655 55.526C31.8371 55.6998 31.9264 55.8474 32.0263 55.9724C31.9448 56.0373 31.8596 56.1048 31.7709 56.1753V62.919H58.4271V55.5381H44.0901C44.8659 54.9408 45.6152 54.3408 46.3378 53.7381C49.3407 51.2335 51.8838 48.6829 53.9667 46.0863C56.5509 42.8295 57.843 39.3072 57.843 35.5194C57.843 32.0502 56.7633 29.2359 54.6039 27.0765C52.4799 24.9171 49.3116 23.8374 45.099 23.8374C42.6564 23.8374 40.4262 24.3153 38.4084 25.2711C36.426 26.2269 34.8153 27.7137 33.5763 29.7315C32.6211 31.3328 32.0227 33.2462 31.7809 35.4717C31.7181 36.0506 31.6793 36.6506 31.6647 37.2717H40.4262C40.4262 35.4309 40.7979 34.0149 41.5413 33.0237C42.3201 31.9971 43.3821 31.4838 44.7273 31.4838C46.0725 31.4838 47.0814 31.8909 47.754 32.7051C48.4266 33.5193 48.7629 34.6521 48.7629 36.1035C48.7629 38.0151 48.0726 39.9798 46.692 41.9976C45.3114 44.0154 43.6122 45.9447 41.5944 47.7855C39.8865 49.3715 37.6268 51.3384 34.8152 53.6864C34.3634 54.0636 33.8973 54.4508 33.417 54.8478C33.4332 54.837 33.4342 54.8382 33.4199 54.8512C33.4197 54.8514 33.42 54.8511 33.4199 54.8512C33.4075 54.8626 33.3837 54.8829 33.3492 54.9115L32.2702 53.4604C35.7278 50.6027 38.4236 48.2735 40.3696 46.4665L40.3754 46.4611L40.3813 46.4558C42.3083 44.6978 43.9128 42.8719 45.2065 40.9812C46.4392 39.1795 46.9629 37.5631 46.9629 36.1035C46.9629 34.9148 46.6877 34.2406 46.3663 33.8515C46.1255 33.56 45.6948 33.2838 44.7273 33.2838C43.9182 33.2838 43.3992 33.5549 42.9783 34.1077C42.559 34.6692 42.2262 35.6437 42.2262 37.2717V39.0717H29.8219L29.8652 37.2294C29.9413 33.9954 30.6293 31.1585 32.0304 28.8094L32.0363 28.7995L32.0424 28.7897C33.4475 26.5012 35.3099 24.7668 37.6267 23.6498L37.6378 23.6444C39.9184 22.5641 42.4153 22.0374 45.099 22.0374C49.5987 22.0374 53.3053 23.1928 55.882 25.809C58.4222 28.3522 59.643 31.6462 59.643 35.5194C59.643 39.7537 58.1873 43.6632 55.3767 47.2051L55.3708 47.2127C53.589 49.4338 51.4957 51.6083 49.0974 53.7381H60.2271V64.719H29.9709V55.3062ZM32.2338 53.4976C32.234 53.4974 32.2313 53.4999 32.2246 53.5056C32.2302 53.5006 32.2334 53.4978 32.2338 53.4976Z" fill="white"/>
</g>
<defs>
<linearGradient id="paint0_linear_11_48" x1="-18.9356" y1="21.0484" x2="114.201" y2="26.2517" gradientUnits="userSpaceOnUse">
<stop stop-color="#FFB800"/>
<stop offset="1" stop-color="#F3F4F6"/>
</linearGradient>
<clipPath id="clip0_11_48">
<rect width="90" height="90" fill="white"/>
</clipPath>
</defs>
</svg>
