<svg width="65" height="65" viewBox="0 0 90 90" fill="none" xmlns="http://www.w3.org/2000/svg">
<g id="3 No Icon" clip-path="url(#clip0_11_51)">
<path id="Vector" d="M90 45C90 20.1472 69.8528 0 45 0C20.1472 0 0 20.1472 0 45C0 69.8528 20.1472 90 45 90C69.8528 90 90 69.8528 90 45Z" fill="url(#paint0_linear_11_51)"/>
<path id="Vector_2" fill-rule="evenodd" clip-rule="evenodd" d="M29.6395 37.4256L29.7094 35.5584C29.8651 31.3926 31.2502 27.9609 34.0369 25.512C36.7869 23.0954 40.4209 21.9843 44.73 21.9843C47.5851 21.9843 50.1344 22.4783 52.3135 23.5459C54.488 24.594 56.2036 26.0686 57.3638 27.9963C58.5377 29.888 59.1147 32.0045 59.1147 34.2981C59.1147 36.9404 58.4493 39.2721 56.9777 41.145L56.9713 41.1533L56.9646 41.1615C56.3987 41.8647 55.7833 42.486 55.1181 43.0187C56.1029 43.6928 56.9649 44.5137 57.6927 45.4842C59.1484 47.4252 59.805 49.8329 59.805 52.5645C59.805 55.0497 59.2205 57.3234 58.0089 59.3312C56.8194 61.3257 55.074 62.8582 52.8574 63.9476C50.6438 65.0531 48.0738 65.5686 45.2079 65.5686C40.6661 65.5686 36.8257 64.4485 33.8718 62.028L33.8622 62.0202C30.8461 59.5138 29.3847 55.8121 29.2312 51.2444L29.1686 49.3839H41.6044L41.6444 51.1431C41.6721 52.3628 42.0045 53.1416 42.4826 53.6666C42.8939 54.0877 43.5964 54.4284 44.8893 54.4284C45.9245 54.4284 46.4589 54.1467 46.7733 53.8173L46.7745 53.8161C47.1811 53.391 47.4435 52.8013 47.4435 51.8742C47.4435 50.5835 47.0529 50.0156 46.5879 49.7005L46.5601 49.6817L46.533 49.6618C45.9424 49.2288 44.7046 48.8421 42.4467 48.8421H38.9475V37.8612H42.4467C44.0681 37.8612 45.1857 37.5886 45.9263 37.1852C46.3525 36.9428 46.7001 36.522 46.7001 35.4132C46.7001 34.4795 46.45 33.9971 46.1653 33.7124C45.8713 33.4184 45.3993 33.1776 44.5176 33.1776C43.5684 33.1776 43.1358 33.4436 42.8925 33.7288C42.5125 34.223 42.2486 34.8798 42.1689 35.7838L42.024 37.4256H29.6395ZM41.4909 32.5989C42.1635 31.7847 43.1724 31.3776 44.5176 31.3776C45.7566 31.3776 46.7301 31.7316 47.4381 32.4396C48.1461 33.1476 48.5001 34.1388 48.5001 35.4132C48.5001 37.0062 47.9337 38.1213 46.8009 38.7585C45.7035 39.3603 44.2521 39.6612 42.4467 39.6612H40.7475V47.0421H42.4467C44.8185 47.0421 46.5354 47.4315 47.5974 48.2103C48.6948 48.9537 49.2435 50.175 49.2435 51.8742C49.2435 53.184 48.8541 54.246 48.0753 55.0602C47.3319 55.839 46.2699 56.2284 44.8893 56.2284C43.2609 56.2284 42.0219 55.7859 41.1723 54.9009C40.3227 53.9805 39.8802 52.7415 39.8448 51.1839H31.0302C31.0512 51.8072 31.0981 52.4072 31.171 52.9839C31.5905 56.3055 32.8712 58.8561 35.0127 60.6357C37.5615 62.7243 40.9599 63.7686 45.2079 63.7686C47.8629 63.7686 50.1462 63.2907 52.0578 62.3349C54.0048 61.3791 55.4739 60.0693 56.4651 58.4055C57.4917 56.7063 58.005 54.7593 58.005 52.5645C58.005 50.1219 57.4209 48.1218 56.2527 46.5642C55.4998 45.5604 54.5704 44.7403 53.4646 44.104C52.8779 43.7664 52.2416 43.4806 51.5555 43.2465C51.5283 43.2372 51.5011 43.228 51.4737 43.2189V43.0065C51.5004 42.9974 51.5272 42.9882 51.5537 42.9788C52.2041 42.7495 52.8203 42.4392 53.4022 42.048C54.1841 41.5224 54.9041 40.8507 55.5624 40.0329C56.7306 38.5461 57.3147 36.6345 57.3147 34.2981C57.3147 32.3157 56.8191 30.528 55.8279 28.935C54.8721 27.342 53.4384 26.0853 51.5268 25.1649C49.6506 24.2445 47.385 23.7843 44.73 23.7843C40.7298 23.7843 37.5615 24.8109 35.2251 26.8641C33.2733 28.5793 32.0873 30.8998 31.6672 33.8256C31.5844 34.4022 31.5314 35.0021 31.5081 35.6256H40.3758C40.482 34.422 40.8537 33.4131 41.4909 32.5989Z" fill="white"/>
</g>
<defs>
<linearGradient id="paint0_linear_11_51" x1="-18.9356" y1="21.0484" x2="114.201" y2="26.2517" gradientUnits="userSpaceOnUse">
<stop stop-color="#FFB800"/>
<stop offset="1" stop-color="#F3F4F6"/>
</linearGradient>
<clipPath id="clip0_11_51">
<rect width="90" height="90" fill="white"/>
</clipPath>
</defs>
</svg>
